<?xml version="1.0" standalone="no"?>
<!DOCTYPE svg PUBLIC "-//W3C//DTD SVG 20010904//EN"
 "http://www.w3.org/TR/2001/REC-SVG-20010904/DTD/svg10.dtd">
<svg version="1.0" xmlns="http://www.w3.org/2000/svg"
 width="628.000000pt" height="628.000000pt" viewBox="0 0 628.000000 628.000000"
 preserveAspectRatio="xMidYMid meet">
<metadata>
Created by potrace 1.14, written by Peter Selinger 2001-2017
</metadata>
<g transform="translate(0.000000,628.000000) scale(0.100000,-0.100000)"
fill="#000000" stroke="none">
<path d="M3105 5493 c-14 -27 -81 -145 -149 -263 l-123 -215 -352 -3 c-226 -1
-351 -6 -351 -12 0 -8 410 -485 512 -595 l28 -30 -2 -375 -3 -375 -380 -2
-380 -3 -307 270 c-169 149 -310 270 -313 270 -2 0 -6 -159 -7 -352 l-3 -353
-262 -150 c-144 -83 -264 -153 -267 -156 -6 -5 186 -118 435 -257 42 -23 82
-48 88 -55 7 -9 12 -126 13 -361 l3 -347 304 266 c168 146 312 270 321 275 9
5 182 8 386 7 l369 -2 3 -377 2 -378 -107 -122 c-59 -68 -112 -128 -118 -134
-44 -48 -311 -358 -313 -365 -2 -5 138 -9 342 -9 l346 0 33 -52 c18 -29 89
-151 157 -270 69 -120 127 -218 130 -218 5 1 37 57 236 409 l71 126 353 5 353
5 -272 310 -271 310 3 380 2 380 361 3 c198 1 370 -1 382 -5 11 -4 158 -128
326 -275 168 -148 308 -268 311 -268 3 0 5 159 5 354 l0 354 262 149 c144 83
263 154 264 159 3 8 -108 73 -418 248 l-108 60 0 354 c0 220 -4 352 -10 350
-5 -1 -147 -123 -315 -270 l-305 -268 -380 0 -380 0 0 378 0 378 156 180 c87
98 208 237 270 308 63 71 111 132 108 137 -3 5 -157 9 -351 9 -190 -1 -346 0
-347 2 -2 2 -70 121 -152 265 -82 145 -152 263 -156 263 -4 0 -19 -21 -33 -47z
m176 -325 l127 -223 296 -3 c163 -1 296 -6 296 -11 0 -7 -200 -240 -422 -490
l-38 -43 2 -422 3 -421 422 -3 423 -2 262 230 c145 126 266 230 270 230 4 0 9
-133 10 -296 l3 -296 225 -130 c124 -71 229 -133 233 -137 5 -5 -81 -59 -190
-121 -109 -62 -215 -124 -235 -137 l-38 -23 0 -295 c0 -162 -3 -295 -6 -295
-5 0 -248 210 -453 392 l-76 68 -427 0 -428 0 0 -422 0 -423 101 -115 c56 -63
111 -126 123 -140 11 -14 69 -80 129 -147 59 -67 107 -127 107 -132 0 -7 -103
-12 -297 -13 l-297 -3 -130 -228 c-71 -125 -134 -226 -139 -224 -6 2 -69 105
-140 230 l-130 227 -293 0 c-213 0 -294 3 -294 11 0 12 6 19 278 331 l172 197
0 425 0 426 -423 0 -423 0 -263 -230 c-145 -127 -266 -228 -269 -225 -3 3 -6
136 -6 297 l-1 292 -229 131 c-127 72 -231 136 -233 141 -1 5 97 65 219 134
121 69 227 131 235 138 11 11 13 66 10 298 -3 157 0 287 4 290 5 3 127 -99
271 -225 l263 -230 423 -1 422 0 0 428 -1 427 -97 111 c-53 61 -154 177 -224
257 -71 80 -128 150 -128 156 0 8 92 11 293 11 l293 0 134 235 c86 150 138
231 144 225 5 -5 67 -110 137 -232z"/>
<path d="M3114 5296 c-15 -31 -15 -36 2 -71 l18 -38 18 23 c21 26 23 58 6 95
-15 33 -25 32 -44 -9z"/>
<path d="M3096 5190 c7 -8 14 -24 17 -35 4 -19 5 -19 6 1 0 12 -7 28 -16 35
-16 12 -17 12 -7 -1z"/>
<path d="M3162 5150 c0 -19 2 -27 5 -17 2 9 2 25 0 35 -3 9 -5 1 -5 -18z"/>
<path d="M3174 5008 l-29 -33 33 29 c17 17 32 31 32 33 0 8 -8 1 -36 -29z"/>
<path d="M2992 4994 c-26 -18 -30 -69 -6 -78 19 -7 56 12 51 27 -7 21 -27 19
-27 -3 0 -13 -5 -20 -12 -18 -21 7 -22 41 -2 55 49 36 74 -8 50 -91 -17 -58
-29 -66 -62 -41 -42 32 -159 2 -253 -64 -15 -11 -42 -22 -61 -25 -47 -9 -100
23 -100 59 0 31 34 52 56 34 21 -17 17 -31 -6 -24 -14 5 -20 2 -20 -10 0 -12
7 -15 27 -13 59 7 29 88 -32 88 -18 0 -37 -4 -40 -10 -3 -5 -26 -18 -50 -29
-51 -22 -57 -35 -20 -37 15 -1 46 -21 75 -48 27 -25 56 -46 65 -46 8 0 15 -7
15 -16 0 -27 37 -80 65 -92 24 -11 25 -10 25 23 0 18 4 44 9 57 10 28 65 88
79 88 5 0 12 -35 14 -77 3 -57 11 -93 30 -135 l26 -57 -19 -51 c-33 -88 -19
-197 36 -280 35 -53 35 -114 -1 -193 -23 -51 -35 -67 -60 -76 -66 -24 -89 -82
-52 -126 29 -33 64 -28 74 10 8 31 -2 45 -32 45 -33 0 -30 16 6 35 37 19 40
19 40 -5 0 -23 19 -69 38 -92 17 -21 62 -24 80 -6 17 17 15 48 -4 48 -11 0
-14 -6 -9 -20 5 -15 2 -20 -13 -20 -40 0 -73 73 -45 101 26 26 183 -67 207
-121 5 -12 7 -12 12 -2 24 53 164 142 200 128 19 -7 18 -56 -2 -84 -20 -28
-58 -31 -49 -3 8 26 -11 36 -24 13 -8 -15 -6 -23 8 -36 40 -37 92 -6 113 69 6
22 12 41 14 43 1 1 13 -3 28 -9 30 -14 35 -39 7 -39 -25 0 -34 -15 -27 -45 14
-57 86 -32 86 30 0 35 -38 81 -74 91 -13 3 -32 28 -51 67 -34 73 -37 157 -5
192 53 59 72 189 41 279 l-21 59 27 56 c20 42 28 78 32 139 l6 83 43 -44 c37
-38 45 -53 51 -98 l7 -54 42 41 c23 23 42 51 42 62 0 12 9 22 23 26 13 3 40
24 61 46 34 37 51 45 84 41 29 -4 8 22 -33 40 -24 11 -47 24 -50 29 -11 17
-71 11 -89 -9 -26 -29 -17 -65 17 -69 20 -2 27 1 27 13 0 12 -6 15 -20 10 -14
-4 -20 -2 -20 8 0 20 27 29 51 17 28 -16 23 -45 -13 -75 -26 -22 -38 -25 -67
-20 -20 3 -49 15 -64 26 -53 38 -152 79 -190 79 -22 0 -52 -8 -68 -17 -34 -20
-41 -15 -59 47 -14 49 -12 76 5 90 32 27 80 -19 50 -49 -13 -14 -15 -13 -15 8
0 13 -5 21 -12 19 -21 -7 -20 -26 2 -38 50 -27 69 51 19 79 -22 12 -29 12 -55
0 -44 -21 -53 -72 -26 -144 l22 -56 -35 -51 c-19 -27 -35 -54 -35 -59 0 -17
-19 -9 -25 12 -4 11 -20 36 -37 54 l-30 35 21 59 c21 60 20 122 -3 139 -23 19
-62 21 -84 6z m11 -193 c16 -16 -9 -39 -38 -33 -40 7 -75 -22 -75 -63 0 -28 5
-38 25 -47 25 -11 33 -32 16 -42 -9 -6 -28 14 -48 51 -28 50 -8 126 36 141 31
10 70 7 84 -7z m385 -16 c27 -32 28 -74 2 -125 -24 -48 -36 -56 -49 -33 -7 14
-4 20 20 30 24 10 29 18 29 46 0 41 -31 67 -79 67 -36 0 -50 18 -27 35 25 19
78 8 104 -20z m-267 -107 c13 -33 25 -36 34 -9 3 10 19 38 36 61 28 39 32 41
47 27 13 -13 13 -21 4 -42 -27 -60 -4 -116 53 -131 36 -9 33 -51 -8 -105 -131
-172 -161 -304 -92 -395 l28 -36 -22 -38 c-36 -65 -22 -116 31 -108 27 4 40
48 14 48 -10 0 -13 -6 -10 -15 4 -8 1 -15 -6 -15 -9 0 -11 12 -7 41 9 64 21
69 67 24 22 -21 40 -42 40 -46 0 -3 -26 -22 -59 -42 -32 -20 -75 -55 -95 -77
l-36 -40 -31 35 c-17 19 -60 54 -95 76 -35 23 -64 45 -64 49 0 4 17 23 37 44
l38 37 17 -21 c20 -24 24 -80 7 -80 -6 0 -9 7 -5 15 3 9 0 15 -10 15 -10 0
-14 -8 -12 -22 2 -18 10 -23 32 -23 44 0 55 41 26 98 l-22 44 27 42 c35 53 43
120 21 192 -15 50 -45 102 -123 211 -32 45 -36 88 -8 88 8 0 27 12 44 26 33
28 38 51 20 103 -9 24 -8 35 2 47 12 14 16 12 41 -18 15 -18 32 -45 39 -60z
m-144 52 c2 -8 -2 -22 -7 -30 -8 -13 -11 -13 -19 -1 -7 11 -10 9 -16 -8 -3
-12 -11 -19 -16 -16 -13 9 -11 49 3 63 17 17 52 11 55 -8z m381 8 c15 -15 16
-55 1 -63 -6 -4 -13 3 -16 15 -4 16 -8 18 -14 8 -7 -11 -11 -10 -19 2 -18 27
-12 50 13 50 13 0 28 -5 35 -12z m-333 -77 c-7 -29 -23 -51 -36 -51 -13 0 -11
16 6 56 17 41 40 37 30 -5z m265 -7 c15 -44 4 -57 -21 -25 -19 23 -25 52 -13
64 11 11 22 -2 34 -39z m-281 -323 c34 -51 64 -105 68 -119 8 -33 -27 -97 -53
-97 -16 0 -19 8 -19 52 1 48 -1 51 -15 38 -24 -22 -45 -18 -58 10 -20 45 -16
55 21 48 l32 -6 -27 29 c-26 28 -33 60 -29 129 1 36 3 34 80 -84z m341 48 c0
-54 -3 -64 -31 -91 l-30 -31 35 6 c40 6 41 4 25 -42 -12 -35 -33 -40 -62 -14
-18 17 -19 17 -12 -19 14 -76 -19 -103 -56 -45 -30 48 -19 86 56 198 36 55 68
99 70 99 3 0 5 -27 5 -61z m-505 -585 c-20 -15 -37 -14 -42 2 -4 13 40 32 52
21 6 -5 3 -14 -10 -23z m635 5 c0 -14 -29 -17 -46 -5 -26 19 -10 37 21 23 14
-7 25 -15 25 -18z"/>
<path d="M3110 4996 c0 -2 8 -10 18 -17 15 -13 16 -12 3 4 -13 16 -21 21 -21
13z"/>
<path d="M1447 3810 c-9 -13 -17 -31 -17 -40 0 -9 -9 -23 -20 -33 -40 -34 -13
-107 39 -107 28 0 41 15 41 46 0 8 -9 14 -20 14 -22 0 -27 -16 -7 -23 6 -2 9
-8 5 -12 -12 -12 -38 3 -38 23 0 46 48 55 79 16 26 -34 27 -79 1 -124 -91
-159 -102 -201 -71 -260 l21 -40 -23 -15 c-30 -19 -80 -29 -112 -21 -29 7 -35
45 -10 66 18 15 45 6 45 -14 0 -10 -6 -13 -15 -10 -9 4 -15 0 -15 -10 0 -22
27 -20 39 2 13 24 -4 52 -33 52 -49 0 -75 -70 -38 -103 31 -28 73 -30 135 -7
l58 22 34 -30 c18 -17 43 -33 55 -37 29 -9 23 -18 -39 -60 l-55 -36 -41 15
c-62 24 -130 21 -149 -6 -23 -33 -20 -73 7 -90 23 -16 59 -10 72 12 8 13 -24
52 -36 44 -14 -8 -10 -24 6 -24 20 0 19 -19 0 -26 -21 -8 -45 14 -45 41 0 38
72 41 139 5 20 -10 21 -13 8 -33 -40 -61 -30 -119 36 -227 49 -81 58 -134 27
-172 -23 -30 -48 -36 -68 -16 -17 17 -15 48 3 55 21 8 33 -6 15 -17 -11 -7
-12 -12 -4 -20 17 -17 41 17 27 38 -15 25 -49 26 -72 3 -26 -26 -27 -65 -2
-90 10 -10 21 -29 24 -42 3 -13 12 -33 20 -43 13 -18 14 -16 20 21 5 30 16 47
46 71 22 18 41 42 43 54 2 15 13 24 35 30 29 8 83 58 83 79 0 5 -20 9 -45 9
-39 0 -52 6 -90 41 -25 23 -45 45 -45 49 0 4 37 10 83 12 63 3 94 10 135 30
l54 26 54 -19 c29 -10 78 -19 108 -19 60 0 148 29 182 61 32 30 108 26 188
-12 45 -21 66 -36 66 -49 0 -18 62 -80 81 -80 5 0 23 7 39 15 35 18 41 58 11
75 -31 16 -41 12 -55 -21 l-13 -31 -17 23 c-24 35 -20 44 27 56 23 7 53 23 67
37 20 22 22 31 14 54 -7 19 -16 27 -33 27 -14 0 -26 -6 -29 -14 -3 -10 1 -12
16 -9 41 11 35 -35 -7 -57 -34 -17 -71 -9 -71 15 0 50 62 149 111 179 l29 18
-39 26 c-42 28 -101 130 -101 174 0 19 5 23 31 23 44 0 69 -17 69 -46 0 -21
-4 -24 -20 -19 -24 8 -29 -20 -5 -29 19 -7 55 28 55 53 0 25 -42 58 -91 71
-41 11 -45 19 -29 51 15 26 28 24 36 -6 11 -43 74 -28 74 18 0 27 -28 46 -67
47 -23 0 -38 -8 -57 -31 -14 -17 -26 -37 -26 -45 0 -8 -12 -20 -27 -26 -16 -7
-45 -22 -65 -35 -30 -19 -45 -21 -90 -16 -29 3 -65 14 -80 25 -73 51 -192 67
-276 38 l-59 -20 -59 27 c-44 20 -79 28 -136 31 -43 2 -78 8 -78 12 0 5 21 26
46 47 38 31 55 38 90 38 30 0 44 4 44 13 0 23 -57 72 -83 72 -19 0 -28 8 -36
30 -5 17 -26 45 -46 63 -22 20 -40 47 -44 68 l-7 33 -17 -24z m1048 -330 c10
-16 -5 -50 -21 -50 -16 0 -17 5 -8 38 7 23 19 29 29 12z m-865 -80 c41 -21 51
-43 24 -54 -10 -4 -18 3 -26 24 -8 25 -15 30 -42 30 -42 0 -64 -24 -68 -75 -2
-32 -7 -40 -23 -40 -23 0 -30 23 -20 71 11 61 83 81 155 44z m-22 -37 c2 -7
-3 -13 -12 -13 -9 0 -13 -6 -10 -14 6 -15 -29 -40 -40 -29 -10 11 -7 48 6 61
15 15 50 12 56 -5z m462 -8 c34 -17 37 -27 15 -45 -26 -21 -17 -28 30 -22 37
4 46 1 51 -13 10 -24 -38 -65 -75 -65 -28 0 -111 46 -198 110 l-48 35 49 3
c57 4 103 -12 111 -39 11 -34 26 -21 19 16 -7 40 1 43 46 20z m305 -55 c10
-21 41 -65 70 -96 l53 -56 -43 -42 c-23 -23 -55 -66 -71 -94 -16 -29 -33 -52
-39 -52 -14 0 -75 62 -75 77 0 16 40 33 76 33 13 0 24 -5 24 -11 0 -6 -9 -9
-20 -6 -13 3 -20 0 -20 -10 0 -10 9 -13 28 -11 29 3 40 31 23 57 -13 19 -75
16 -112 -6 -24 -14 -33 -15 -47 -5 -112 81 -210 67 -391 -58 -98 -68 -119 -71
-131 -20 -3 13 -18 32 -33 44 -25 18 -31 19 -78 7 -94 -24 -87 24 11 74 l44
22 -39 21 c-22 11 -51 32 -65 47 -21 22 -22 28 -10 35 8 6 22 7 30 4 8 -3 31
-8 50 -11 41 -6 87 24 92 60 5 38 50 34 110 -11 94 -71 155 -102 223 -117 58
-12 72 -12 108 1 23 8 52 25 65 37 l23 22 39 -23 c21 -12 50 -22 64 -22 29 0
56 24 56 50 0 20 -33 36 -50 25 -16 -10 -12 -28 5 -22 8 4 17 2 20 -3 8 -13
-51 -13 -76 0 -10 6 -19 16 -19 22 0 13 65 78 78 78 5 0 17 -18 27 -40z m-695
1 c0 -15 -42 -41 -67 -41 -33 0 -28 19 10 35 38 17 57 19 57 6z m458 -231 c49
-30 40 -55 -21 -55 -26 0 -47 -2 -47 -4 0 -3 8 -13 17 -24 17 -18 17 -20 -6
-38 -13 -10 -32 -19 -43 -19 -18 0 -19 4 -14 38 l7 37 -23 -28 c-24 -28 -72
-47 -120 -47 -51 0 -38 19 52 80 131 88 145 92 198 60z m-473 -61 c16 -16 17
-19 4 -19 -32 0 -79 22 -79 37 0 20 48 9 75 -18z m-145 -39 c7 -61 15 -70 60
-70 34 0 41 4 46 25 7 29 48 37 42 8 -5 -25 -58 -51 -106 -52 -53 -1 -92 32
-92 78 0 75 42 84 50 11z m58 12 c7 -5 10 -16 6 -26 -4 -11 -2 -16 6 -14 7 2
15 -3 17 -10 4 -10 -4 -13 -28 -10 -30 3 -34 7 -37 36 -3 33 9 41 36 24z m916
-128 c10 -26 7 -44 -8 -44 -14 0 -29 37 -20 52 8 13 21 9 28 -8z"/>
<path d="M4806 3799 c-3 -17 -21 -44 -42 -62 -20 -18 -41 -46 -48 -62 -9 -21
-21 -31 -37 -32 -13 -1 -36 -16 -51 -33 -31 -33 -37 -63 -13 -54 32 13 82 -7
124 -49 l43 -42 -78 -5 c-56 -4 -96 -14 -138 -33 l-59 -27 -61 20 c-52 17 -72
19 -132 11 -67 -8 -121 -28 -154 -56 -8 -7 -40 -14 -70 -16 -70 -3 -175 41
-185 79 -9 37 -50 72 -85 72 -28 0 -70 -29 -70 -49 0 -18 32 -41 56 -41 19 0
24 5 24 25 0 33 24 32 39 -2 14 -30 3 -43 -36 -43 -30 0 -83 -47 -83 -74 0
-13 9 -31 20 -41 16 -15 22 -15 35 -5 23 19 18 33 -10 26 -31 -8 -34 15 -5 44
21 21 74 27 85 10 20 -32 -82 -200 -121 -200 -23 0 -16 -14 16 -32 34 -19 80
-87 100 -147 15 -46 15 -47 -22 -56 -21 -5 -33 -1 -53 19 -31 31 -28 52 5 48
15 -3 21 1 18 10 -6 18 -49 16 -61 -3 -18 -29 1 -67 43 -89 21 -11 48 -20 60
-20 24 0 25 -12 4 -45 -21 -32 -34 -32 -34 0 0 33 -23 42 -55 21 -30 -20 -32
-37 -5 -61 42 -38 119 -9 134 49 4 15 27 33 67 54 75 39 151 44 191 12 74 -58
197 -75 289 -40 48 18 54 18 81 4 60 -31 112 -44 179 -45 l69 -1 -21 -30 c-30
-42 -77 -68 -121 -68 -27 0 -38 -4 -38 -15 0 -21 50 -65 82 -72 16 -3 28 -14
32 -27 3 -12 24 -39 46 -60 23 -21 43 -51 47 -67 4 -23 8 -27 19 -18 7 5 16
24 19 40 4 16 14 33 22 38 25 14 21 70 -6 93 -33 26 -59 23 -67 -8 -8 -32 8
-51 26 -29 8 10 9 15 1 15 -6 0 -11 5 -11 10 0 16 27 11 34 -6 9 -25 -12 -54
-39 -54 -34 0 -67 54 -59 95 3 17 23 59 45 95 56 95 71 144 59 191 -6 21 -15
41 -20 44 -24 15 -7 35 40 49 51 15 86 14 103 -3 16 -16 -9 -61 -32 -61 -28 0
-37 20 -12 27 22 6 27 18 12 28 -14 8 -43 -25 -37 -42 3 -8 6 -17 6 -19 0 -2
13 -4 28 -4 53 0 78 53 46 98 -19 28 -87 30 -156 5 l-48 -17 -27 26 c-16 14
-38 31 -50 37 -31 16 -29 28 10 47 17 9 41 25 53 35 21 19 22 19 77 -2 39 -15
66 -19 91 -15 59 11 86 74 48 109 -37 33 -99 7 -75 -31 12 -20 35 -22 41 -4 2
6 -3 12 -12 12 -17 0 -22 15 -7 24 17 11 41 -6 47 -31 12 -44 -42 -57 -116
-27 -44 18 -46 21 -27 49 38 56 27 115 -46 235 -48 79 -53 127 -18 164 31 33
58 33 73 1 13 -30 -7 -65 -26 -44 -8 8 -8 13 2 16 16 6 5 23 -14 23 -11 0 -14
-8 -12 -27 2 -23 8 -29 35 -31 29 -3 35 1 49 32 16 33 16 36 -2 63 -10 15 -26
45 -36 66 -9 20 -19 37 -21 37 -3 0 -7 -14 -11 -31z m-1002 -335 c8 -29 3 -39
-13 -29 -13 8 -15 55 -2 55 5 0 12 -12 15 -26z m960 -55 c46 -21 62 -135 18
-127 -12 2 -19 16 -23 45 -3 23 -11 48 -18 57 -23 28 -91 18 -91 -13 0 -23 -9
-31 -26 -24 -25 9 -15 32 24 52 42 23 80 26 116 10z m-36 -41 c13 -13 16 -50
6 -61 -7 -7 -54 13 -54 24 0 4 6 10 13 12 7 3 5 6 -5 6 -10 1 -18 8 -18 16 0
18 41 20 58 3z m-474 -35 l-7 -38 32 33 c30 29 38 32 94 32 52 0 59 -2 47 -14
-31 -28 -184 -127 -207 -132 -32 -8 -70 3 -94 27 -17 17 -18 23 -8 36 10 11
24 14 58 9 42 -6 43 -5 28 12 -24 26 -21 39 11 56 45 25 54 21 46 -21z m-279
-33 c45 -46 40 -58 -24 -67 -28 -4 -41 -2 -41 6 0 8 8 10 20 6 11 -3 20 -2 20
4 0 16 -18 23 -41 16 -31 -10 -22 -57 14 -69 23 -8 37 -6 72 13 l43 23 41 -28
c96 -63 192 -46 345 59 93 65 146 84 146 53 0 -8 12 -29 27 -46 24 -29 31 -32
67 -27 23 3 48 7 56 11 8 3 22 2 30 -4 12 -7 11 -13 -10 -35 -13 -14 -41 -33
-62 -42 -45 -20 -47 -27 -10 -42 15 -7 43 -25 62 -41 27 -22 32 -32 23 -41 -9
-9 -23 -9 -62 1 -45 10 -55 10 -77 -5 -14 -9 -30 -29 -36 -45 -17 -50 -39 -46
-144 26 -101 70 -180 104 -244 104 -43 0 -100 -21 -120 -44 -16 -21 -25 -20
-77 5 -57 28 -98 17 -98 -27 0 -24 4 -29 24 -29 13 0 26 6 29 14 3 9 -1 11
-17 6 -12 -4 -21 -2 -21 4 0 6 11 11 25 11 29 0 75 -20 75 -33 0 -13 -66 -77
-79 -77 -6 0 -19 17 -30 39 -11 21 -43 63 -70 93 l-50 55 43 45 c24 25 56 69
71 97 16 28 31 51 35 51 3 0 24 -18 45 -40z m680 -4 c40 -17 46 -36 12 -36
-25 0 -67 26 -67 41 0 13 15 11 55 -5z m-422 -222 c62 -31 196 -127 190 -137
-3 -5 -30 -7 -62 -4 -47 5 -61 11 -85 38 l-29 33 6 -37 c6 -41 -3 -46 -48 -25
-28 13 -32 30 -10 48 26 21 17 27 -34 22 -65 -6 -76 12 -31 50 39 32 58 34
103 12z m451 -43 c8 -13 -16 -30 -54 -37 -25 -6 -32 -4 -28 7 9 26 71 49 82
30z m120 -37 c10 -39 -2 -81 -29 -98 -31 -21 -92 -19 -130 3 -36 21 -46 51
-16 51 13 0 21 -8 23 -22 2 -18 11 -24 36 -26 46 -5 72 20 72 68 0 20 3 40 7
43 14 15 31 6 37 -19z m-66 -27 c2 -10 -2 -24 -8 -32 -14 -17 -60 -20 -60 -5
0 6 7 10 15 10 18 0 20 16 3 23 -10 4 -9 8 2 16 21 15 44 9 48 -12z m-925
-103 c7 -8 -13 -54 -25 -54 -10 0 -11 44 -1 53 8 9 18 9 26 1z"/>
<path d="M3108 3703 c-14 -16 -33 -43 -42 -60 -16 -31 -19 -33 -69 -32 -33 1
-66 -5 -87 -16 l-34 -18 35 -30 c64 -57 99 -111 124 -190 14 -43 25 -92 25
-108 0 -31 0 -31 -42 -24 -117 19 -239 84 -284 153 -8 12 -19 22 -25 22 -18 0
-41 -71 -37 -116 3 -41 1 -43 -46 -76 -72 -48 -78 -63 -40 -96 17 -15 45 -35
62 -44 28 -15 30 -20 25 -52 -6 -37 20 -126 37 -126 5 0 18 12 30 28 60 76
161 130 278 148 42 7 42 6 42 -24 0 -17 -11 -66 -25 -109 -24 -78 -66 -141
-130 -196 l-29 -24 34 -18 c21 -11 54 -17 87 -16 51 1 53 0 72 -37 10 -20 30
-47 43 -59 l23 -21 26 21 c14 12 36 39 48 60 21 35 26 37 72 37 27 0 66 7 85
15 l36 15 -57 57 c-31 31 -65 74 -76 96 -18 34 -59 174 -59 200 0 14 92 0 158
-25 64 -23 139 -76 171 -119 12 -16 26 -29 30 -29 16 0 42 85 39 125 -3 36 0
40 40 64 23 14 50 36 58 49 15 21 15 25 -2 44 -11 11 -38 31 -62 45 -38 23
-42 29 -37 53 8 35 -2 89 -21 114 -13 19 -16 17 -66 -33 -32 -32 -77 -65 -113
-81 -74 -34 -172 -57 -185 -44 -12 12 20 145 49 201 11 22 45 65 76 96 l57 57
-36 15 c-19 8 -58 15 -85 15 -47 0 -50 2 -74 43 -21 35 -59 77 -70 77 -2 0
-15 -12 -29 -27z m87 -115 l7 -28 64 6 c35 4 64 4 64 0 0 -4 -14 -24 -31 -45
-22 -28 -36 -37 -50 -34 -10 3 -19 10 -19 15 0 6 -7 8 -15 4 -8 -3 -15 -1 -15
5 0 6 -7 9 -15 5 -11 -4 -15 1 -15 17 0 12 -4 28 -9 35 -6 11 -10 10 -16 -5
-7 -16 -9 -15 -15 7 -8 25 -8 25 -9 2 -1 -13 -5 -20 -11 -17 -6 4 -10 -5 -10
-20 0 -14 -4 -24 -8 -21 -5 3 -21 -2 -36 -10 -16 -7 -34 -14 -41 -14 -12 0
-65 61 -65 76 0 4 27 4 60 1 l61 -5 15 36 c8 21 22 48 31 61 l16 25 28 -34
c15 -18 31 -46 34 -62z m-423 -290 l28 -23 -17 -47 c-13 -36 -23 -48 -38 -48
-17 0 -21 -6 -21 -35 0 -30 4 -35 23 -35 18 0 25 -7 30 -30 3 -16 8 -30 12
-30 4 0 7 -9 8 -19 1 -11 -15 -32 -38 -50 -47 -39 -58 -26 -40 45 7 26 11 47
9 48 -2 2 -29 15 -60 30 -32 15 -58 34 -58 41 0 16 53 51 93 60 18 5 26 12 23
21 -3 8 -8 37 -12 65 -6 48 -6 51 12 41 10 -6 31 -21 46 -34z m794 -7 c-3 -20
-9 -45 -12 -57 -4 -17 1 -22 33 -32 21 -7 49 -21 63 -31 24 -19 24 -20 6 -40
-10 -11 -38 -28 -62 -37 -24 -9 -44 -18 -44 -19 0 -1 4 -26 10 -55 5 -29 7
-56 4 -61 -8 -13 -84 52 -84 72 0 9 4 19 10 21 5 2 11 15 12 31 2 21 8 27 25
27 22 0 26 4 26 35 0 30 -3 35 -22 35 -13 0 -21 9 -26 30 -4 17 -11 30 -16 30
-5 0 -9 9 -9 19 0 21 70 82 84 74 4 -3 5 -22 2 -42z m-389 -103 c27 -25 29
-54 6 -80 -22 -25 -79 -24 -93 1 -17 32 -12 69 12 85 30 21 47 20 75 -6z m-85
-412 c4 3 8 -6 8 -20 0 -14 5 -26 10 -26 6 0 11 -8 11 -17 1 -17 2 -17 6 0 2
9 8 17 13 17 5 0 10 -8 13 -17 2 -10 7 0 12 23 6 36 11 42 32 42 14 0 28 4 32
9 17 26 40 20 70 -17 17 -21 31 -42 31 -46 0 -4 -28 -4 -62 0 l-63 6 -28 -61
c-16 -33 -34 -58 -40 -56 -7 2 -25 29 -41 60 l-29 56 -58 -6 c-33 -3 -59 -2
-59 2 0 4 14 25 31 46 l30 38 36 -19 c20 -11 40 -17 45 -14z"/>
<path d="M4989 3183 l-24 -28 28 24 c25 23 32 31 24 31 -2 0 -14 -12 -28 -27z"/>
<path d="M975 3164 c-20 -15 -20 -15 4 -35 28 -23 43 -24 81 -4 37 19 38 28 5
43 -35 16 -66 15 -90 -4z"/>
<path d="M5208 3169 c-26 -15 -22 -26 14 -45 29 -15 34 -15 65 0 40 19 41 29
8 44 -31 15 -64 15 -87 1z"/>
<path d="M4960 3146 c0 -2 8 -10 18 -17 15 -13 16 -12 3 4 -13 16 -21 21 -21
13z"/>
<path d="M1259 3093 c-13 -16 -12 -17 4 -4 9 7 17 15 17 17 0 8 -8 3 -21 -13z"/>
<path d="M1081 3084 c0 -11 3 -14 6 -6 3 7 2 16 -1 19 -3 4 -6 -2 -5 -13z"/>
<path d="M5191 3084 c0 -11 3 -14 6 -6 3 7 2 16 -1 19 -3 4 -6 -2 -5 -13z"/>
<path d="M2937 2529 c-21 -12 -57 -81 -57 -109 0 -23 -1 -24 -34 -9 -35 16
-42 39 -11 39 29 0 39 14 31 45 -10 38 -45 43 -74 10 -38 -45 -14 -102 54
-127 19 -7 34 -18 34 -26 0 -7 12 -34 27 -59 33 -56 33 -130 2 -175 -31 -43
-59 -132 -59 -185 1 -27 9 -72 19 -102 l19 -53 -26 -57 c-19 -41 -28 -77 -30
-133 -2 -43 -7 -78 -11 -78 -12 1 -43 29 -67 61 -17 23 -24 46 -24 76 0 41 -1
42 -23 32 -26 -12 -67 -68 -67 -92 0 -9 -8 -17 -17 -17 -10 0 -38 -21 -64 -46
-29 -29 -57 -47 -73 -47 -38 -3 -32 -16 19 -38 24 -11 47 -24 50 -29 3 -6 22
-10 40 -10 61 0 91 81 32 88 -20 2 -27 -1 -27 -13 0 -12 6 -15 20 -10 23 7 27
-7 6 -24 -22 -18 -56 3 -56 34 0 36 53 68 100 59 19 -3 46 -14 61 -25 93 -66
212 -96 255 -64 28 21 40 18 52 -12 21 -52 24 -97 9 -118 -13 -17 -18 -18 -41
-7 -29 13 -35 46 -11 56 10 4 15 -1 15 -14 0 -22 15 -27 26 -9 10 18 -21 42
-45 34 -30 -9 -29 -59 2 -79 38 -25 79 -8 95 39 11 35 10 46 -9 102 l-23 63
26 28 c14 15 32 40 41 56 l14 30 26 -41 c14 -22 33 -47 42 -57 16 -16 16 -20
-5 -77 -18 -48 -21 -68 -14 -97 19 -75 115 -79 122 -5 3 25 -1 33 -19 38 -24
8 -56 -16 -45 -34 12 -18 26 -12 26 11 0 20 2 21 15 7 30 -30 -18 -76 -50 -49
-17 14 -19 41 -5 90 18 62 25 67 59 47 56 -33 132 -17 241 53 68 43 109 48
148 15 36 -30 41 -59 13 -75 -24 -12 -51 -3 -51 17 0 10 6 12 20 8 14 -5 20
-2 20 10 0 12 -7 15 -27 13 -34 -4 -43 -40 -17 -69 18 -20 78 -27 88 -10 4 5
26 19 51 31 25 12 45 26 45 32 0 6 -7 7 -16 4 -21 -8 -50 9 -94 55 -20 22 -44
39 -53 39 -9 0 -18 12 -22 30 -3 16 -23 44 -43 61 l-37 33 -7 -53 c-5 -43 -13
-60 -44 -92 -21 -21 -41 -39 -45 -39 -3 0 -9 35 -11 78 -3 56 -12 92 -31 133
l-27 55 21 60 c16 46 20 72 14 117 -7 70 -29 134 -54 162 -13 13 -20 38 -22
75 -4 71 41 174 83 189 42 15 68 47 68 84 0 35 -25 67 -52 67 -42 0 -51 -72
-10 -78 28 -4 28 -17 0 -36 -32 -23 -34 -21 -47 29 -18 74 -71 106 -112 69
-14 -13 -16 -21 -8 -36 13 -23 32 -13 24 13 -9 28 29 25 49 -3 20 -28 21 -77
2 -84 -36 -14 -176 75 -200 128 -5 10 -7 10 -12 -2 -22 -50 -174 -143 -205
-125 -15 10 -10 72 7 89 8 9 24 16 35 16 16 0 18 -5 13 -26 -5 -20 -3 -25 7
-22 24 8 22 45 -3 62 -26 19 -27 19 -51 5z m-77 -48 c0 -21 -19 -19 -60 7 -2
2 2 7 10 12 14 9 50 -4 50 -19z m305 -1 c11 -16 52 -51 92 -77 40 -26 73 -50
73 -53 0 -3 -17 -23 -39 -44 l-39 -38 -16 23 c-18 27 -22 79 -5 79 6 0 9 -7 5
-15 -3 -9 0 -15 10 -15 26 0 13 44 -14 48 -53 8 -67 -43 -31 -108 l22 -38 -29
-38 c-26 -34 -29 -45 -29 -118 0 -95 10 -120 97 -240 67 -94 75 -131 29 -141
-52 -11 -75 -72 -49 -130 9 -21 9 -29 -4 -41 -14 -14 -18 -12 -45 23 -17 21
-33 48 -37 61 -10 30 -21 28 -36 -8 -7 -17 -26 -45 -42 -62 -40 -43 -55 -27
-37 40 11 45 10 53 -5 77 -10 15 -31 32 -46 38 -48 18 -43 40 34 155 40 59 78
129 85 155 19 66 10 138 -23 187 l-27 41 22 46 c29 60 19 98 -26 98 -23 0 -31
-5 -33 -22 -2 -15 2 -23 12 -23 10 0 13 6 10 15 -4 8 -1 15 5 15 17 0 13 -56
-6 -79 l-18 -21 -37 36 c-21 19 -38 39 -38 44 0 4 28 25 63 47 34 22 76 56 92
75 17 20 32 37 35 37 3 1 14 -12 25 -29z m299 24 c24 -9 19 -21 -10 -28 -32
-8 -41 -1 -24 19 14 17 13 17 34 9z m-401 -364 c27 -48 21 -65 -60 -190 -67
-103 -68 -103 -74 -71 -9 44 5 98 33 128 l23 26 -32 -6 c-38 -7 -42 6 -18 53
10 19 20 27 30 24 8 -4 15 -10 15 -14 0 -4 6 -10 14 -13 11 -4 13 3 9 33 -11
77 23 93 60 30z m212 19 c4 -11 4 -37 0 -57 -7 -36 -6 -36 12 -19 33 29 55 18
68 -35 7 -27 6 -27 -32 -21 l-38 6 33 -30 c29 -29 32 -36 32 -93 0 -33 -4 -59
-8 -56 -22 14 -133 197 -138 227 -9 62 54 131 71 78z m-335 -511 c0 -12 -3
-18 -6 -15 -16 15 -44 -15 -44 -47 0 -40 38 -71 76 -63 25 4 50 -15 40 -31
-10 -17 -58 -23 -86 -12 -46 19 -65 93 -37 143 32 58 57 69 57 25z m68 19 c17
-20 25 -64 13 -72 -11 -6 -41 50 -41 75 0 14 15 13 28 -3z m292 3 c0 -21 -29
-80 -39 -80 -16 0 -13 43 5 68 16 23 34 29 34 12z m92 -40 c39 -79 6 -155 -67
-153 -20 1 -42 6 -48 12 -16 16 9 39 37 34 67 -13 109 84 48 110 -16 7 -27 18
-24 25 7 23 36 8 54 -28z m-452 -38 c0 -15 2 -15 10 -2 9 13 11 13 20 0 23
-36 -1 -61 -39 -40 -20 10 -29 49 -15 63 10 10 24 -2 24 -21z m430 -7 c0 -24
-25 -45 -54 -45 -18 0 -21 27 -6 50 8 12 12 13 19 2 6 -10 10 -8 14 8 7 28 27
17 27 -15z"/>
<path d="M3114 1298 l-19 -23 23 19 c12 11 22 21 22 23 0 8 -8 2 -26 -19z"/>
<path d="M3165 1290 c10 -11 20 -20 23 -20 3 0 -3 9 -13 20 -10 11 -20 20 -23
20 -3 0 3 -9 13 -20z"/>
<path d="M3108 1143 c5 -21 7 -23 10 -9 2 10 0 22 -6 28 -6 6 -7 0 -4 -19z"/>
<path d="M3160 1136 c0 -14 4 -27 8 -30 5 -3 6 8 4 25 -5 35 -12 38 -12 5z"/>
<path d="M3116 1065 c-17 -35 -17 -40 -2 -71 19 -41 29 -42 44 -9 17 37 15 69
-6 95 l-18 23 -18 -38z"/>
</g>
</svg>
